<?xml version="1.0" standalone="no"?>
<!DOCTYPE svg PUBLIC "-//W3C//DTD SVG 20010904//EN"
 "http://www.w3.org/TR/2001/REC-SVG-20010904/DTD/svg10.dtd">
<svg version="1.0" xmlns="http://www.w3.org/2000/svg"
 width="192.000000pt" height="192.000000pt" viewBox="0 0 192.000000 192.000000"
 preserveAspectRatio="xMidYMid meet">

<g transform="translate(0.000000,192.000000) scale(0.100000,-0.100000)"
fill="#000000" stroke="none">
<path d="M707 1909 c-366 -30 -544 -139 -634 -387 -54 -148 -79 -387 -70 -657
13 -357 63 -538 183 -660 118 -120 265 -172 554 -196 156 -13 430 -7 564 11
306 43 461 151 543 378 54 148 79 387 70 657 -7 189 -19 290 -48 402 -62 243
-219 379 -499 432 -150 28 -451 38 -663 20z m383 -461 l131 -132 -70 -70 -71
-71 -60 60 -60 59 -60 -59 -60 -60 -71 71 -70 70 128 131 c70 72 129 131 130
132 1 1 61 -58 133 -131z m-405 -428 l-59 -60 59 -60 60 -60 -71 -71 -70 -70
-131 131 -132 130 132 130 131 131 70 -70 71 -71 -60 -60z m785 47 l108 -107
-131 -131 -131 -130 -70 70 -71 71 60 60 59 60 -59 60 -59 60 69 70 69 70 24
-23 c14 -12 73 -70 132 -130z m-450 -52 l55 -55 -58 -58 -57 -57 -57 57 -58
58 55 55 c30 30 57 55 60 55 3 0 30 -25 60 -55z m-118 -332 l58 -57 60 59 60
60 71 -71 70 -70 -131 -131 -130 -132 -130 132 -131 131 68 68 c37 37 70 68
72 68 3 0 31 -26 63 -57z"/>
</g>
</svg>
